<svg xmlns="http://www.w3.org/2000/svg" xml:space="preserve" id="Layer_1" x="0" y="0" viewBox="0 0 4096 4096"><style>.st0{fill:#fff}</style><path id="Tower_2" d="M896 2726.67v-1.17l-3.17-5 4.83-.83 51-735.22-4.22-1.22 9-5-49.33-7.22 1.11-3.89 41.11-33.11 65.33-27.83 841.06 144.39 38.44 31.67-7.22 3.83-51.17 10.72-2 160.22 40 4.89 29.56-4.89 13.78 2.44-3.67 529.78-5-.67-7-3.56-1.44-5.33-6.33-6.22-9.44-1.56-2.56 10.78-6.56-8.44 4-3s-1-5.44-1.78-5.33-13.67-2-13.67-2l-2.33 8.78-8.33-.11-8.22-1.44s-1.11-5.56.56-7.11c1.67-1.56 9.22-6.56 9.22-6.56l2.33-4.11-9.56 5.67-9.44.78s.22-5.33.22-5.89-1.78-8.56-1.78-8.56l-10.11.44 2 8.44s-1.56.44-1.89.11-5.89-5.22-5.89-5.22l-4.44.11 6.67 23.67-12.67-8.33-10.67-4.33 8.78 6.78 10.89 5.33 2.33 2.89-27.67-7.44s10 7.33 10.56 7.44 11.11 1.89 11.78 1.89 5.44 4.67 5.44 4.67l-15.33-2.78-9.22-3.22-4.67 4.11-7.67-2.89s-5.33.44-6.11.44-6.44-2.33-6.44-2.33l-3.44-.89-9.22-2-6.89.78s-9.22 3.22-8.67 5c.56 1.78-.56 5.67-.89 6.11s-9.89 2.56-10.33 2.89.33-1.78-2.22 3.78c-2.56 5.56-13.89 8.78-13.56 8.44.33-.33-2-6.44-6-8.44s-9.44-5.33-9.44-5.33-2.56 1.89-3.11-.67c-.56-2.56-1.89-8.89-1.44-9.33.44-.44 6.11-7.78 6.11-7.78l-13.11-14.89s-5.89-2.67-6.33-1.78-4.44 14.11-4.44 15.56c0 1.44.78 6.22.78 6.22l-11.78-3.22-4.56-1.56-2 10.89-11.56-3-11.78 1.67h-8.44l-5.56-4.22-6.44-4.67-14.56 8.33s-5.67-3.44-7.56-3.78c-1.89-.33-12.11-4.44-12.11-4.44s10.44-8.44 11.11-8.78 4.89-7.33 4.89-7.33-14.67 8.56-15 8-1.22-7.22-1.56-7.33c-.33-.11-8.33-7.33-9.44-7.11s-4.67.33-4.67.33-7.33-1.78-8.11-1.78-4.78 4.22-4.78 4.22l-5.33 3.67s10.89 8.56 10.89 9.44-.56 9.11-.56 9.11l-1.89 8.56-13.22-.89-12.67 2.89-16.33-4.67s-6.11-3.33-5.44-4.11 6.56-7.56 6.56-7.56l-9.44-3-8.67-8.67-17.11 1s.89 8.56-.78 8.56-16.44-10.22-16.44-10.22l-14.89 4.67s-5.67 3.33-3.78-.33c1.89-3.67 2.44-6.89 3.89-8 1.44-1.11 3.44-5.33 3.44-6.89s-.56-8.56-.11-10.33 4.22-7.11 4.22-7.11-.44-3.67-.56-4.11c-.11-.44-7-12.11-7-12.11l-8.22-6.56L1429 2698l-8.22-4.11-7.89-3.56-19.78-7.78s-6.89-3.89-7-4.33-6.56-11.11-6.56-11.11l-12.56-7.44-6.78-4.78-7.22 1.44-5.56 8.78-3.44 8s-5.67-7.44-5.67-7.78c0-.33-6-9.22-6.78-9.11s-7.44 1.33-7.44 1.33-2.11 4-2.11 4.44-1 7.33-1 7.33-4.56 6.44-4.78 6.89c-.22.44-3.78 6.56-3.89 7s-2.89 4.56-2.89 5.33c0 .78.67 10.44.67 10.44l-4.33 1.89s-2.44 1.67-2.67 2.22c-.22.56-3.33 3.56-3.78 5.44-.44 1.89-1.78 4.89-1.78 5.78s1.22 4.78 1.78 5.56 1.22 1.33.89 2.11-1.22 1.56-1.78 2.22c-.56.67-2.78 2.22-4.11 3.67-1.33 1.44-1.89 1.78-2.44 3.67-.56 1.89-.11 4.11-.67 6s-1.11 4.11-1.11 4.11 1.22 4.33 3.22 4.78c2 .44 3.56.44 3.56.44s.22 3.78.89 4.78 5.89 6.44 6.22 8.11 1.22 2.22.11 4.22-3.33 4-4.67 6.33c-1.33 2.33-.44 5.89-2.22 7.11s-5.89 3.22-6.11 1.44 1.78-8.11.56-9.56c-1.22-1.44-4.67-4.44-8.22-4.33s-8.67.44-8.67.44-1.33-.89-3.56-1.56c-2.22-.67-7.22-.44-8.33-.44s-4-.44-4-.44-3.89-2.89-4.67-3.22-.56-2.67-2.11-3.44c-1.56-.78-16.11 1.56-17.22 2s-2.78 2.89-3.11 5.67-1.44 8.11 1 10.89 2.67 9.44 4 13.78c1.33 4.33 1 5.67 1 5.67s-.11 1.67-2.67-.67c-2.56-2.33-8.67-9.67-10-10s-7-4.56-11.11-2.44-8.5 1.61-8.5 1.61l1.33-48.83h4.67l.5-5.17 3.17-3.5-47.67-.83-1.83-2.83c-2.26-14.41-9.48-24.34-21.44-30l-.78-10.11-2.89-9.22.11-6.67H1136v6.78l-2.44 7.89-1.56 11.78c-13.44 6.73-21.12 16.63-26.33 27.89l-103.33-2z" class="st0"/><path id="Tower_1" d="m3014.42 2640.25 8.91 153.19s-9.22 1-9.66 1c-.45 0-13.45-1-13.45-1s-10.33 2-11.22 2.45c-.89.44-4 10.11-4 10.11s-12.22-14.22-13.22-14.56c-1-.33-5.56 2.56-5.67 3-.11.45-9.22 5.78-9.22 5.78l-5.45-1.44s-9.66-9.78-11.22-11c-1.55-1.22-8.66 2.89-9.55 3s4.33 8.89 4.33 8.89-5.44-1.11-5.89-1c-.44.11-11.33 1.33-12.44 1.44s-5.78 2.78-6.23 2.78c-.44 0-7.77-3.89-8.33-4-.55-.11-10.67 4.22-12.55 5.44-1.89 1.23-1.56-.22-2.67-.33s-3.11-8.11-3.11-9-7.11-10.22-7.11-10.22-3.11 1.33-3.11 2.55c0 1.23-2.23 6-2.23 6s-9.33-1.66-11.55-1.66-.89 5.55-.89 5.55-9.67-5.22-10.11-5.44c-.45-.22-3.67 5.55-4.11 5.55-.45 0-5.34.34-5.67.34s-2 7.33-2 7.77c0 .45-4.22-4.88-4-5.55s4-6 4-6-13.33.55-14.22.67c-.89.11-13.89-1.67-13.89-1.67s-21.22-2.78-21.56-2.78c-.33 0-3 6.78-6.55 8.33-3.56 1.56-5.11-.22-5.67-1-.55-.77-1.55-4.66-1.55-7.11 0-2.44 6.33-.33 7.66-1.22 1.34-.89-1.33-7.11-1.89-8-.55-.89-7.55-6.33-7.55-6.33s-5.67-9.22-7.78-10.45c-2.11-1.22-2.22 3.34-1.67 4.34.56 1 5.11 12.44 5 12.77-.11.34-3-.77-3-.77s0 8.44.23 9.77c.22 1.34-.12 6.23-.89 6.56-.78.33-7.34 1.78-9 2.11-1.67.33-6.67-6-6.67-6.78 0-.77 1.44-5.89 1.44-5.89l1.56-7.44-1.56-4.67-8 2.78s-1-6.33-1.77-8.55c-.78-2.23-9.78-1-9.78-1s-.78 5.33-.67 5.77c.11.45 7.22 9.45 7.22 9.45l-2.44 4.66-8-.11s-6.78.56-7.33.23c-.56-.34-7.23-3.78-8.23-4.12-1-.33-5.11-.44-6.11.12-1 .55-8.77.55-8.77.55s-6.89 5.78-8.56 6.33c-1.67.56-7.11-2.33-7.89-2.77-.78-.45-10.67-8.11-11.89-11.45-1.22-3.33-6.89-.44-9.22.22-2.33.67-2 11.45-2 11.45l-15.89 9.33-6.89 6.67-2.89.55s-6.89-1.11-9-2.11-3.89-4.44-4.55-5.33c-.67-.89-7-7.44-8.34-7.56-1.33-.11-3.33.56-4.22.78s-5 3.89-10.22 5.11c-5.22 1.23-1.67-.77-1.56-2.11.12-1.33-4.11-5.66-6-6.11-1.88-.44-6.88 2.56-8 2.78-1.11.22-8.22 5-8.55 5s-10.22-10.11-12.33-11.22c-2.12-1.11-1.78 5.22-1.78 5.22s-15.11-7-15.89-7.56c-.78-.55-8.78 8.34-9.56 8.34-.77 0-.11-4.56-.77-5-.67-.45-4.67-3.34-7.56-3.11-2.89.22-6.11 2.88-7 3.88s-4.44 7.12-5.11 7.45-3.45 0-3.45 0l-6.33-2.67v-9.11s-7.67 1-10.55 2.33c-2.89 1.34-9.12 9.12-9.12 9.12s-8.55 5.55-11.33 5.33-.44-3.11-.44-3.56c0-.44-12.23-2.55-13-2.33-.78.22-2.78 5.33-3.34 6.11-.55.78-6.22 2.45-7.22 2.45s-10.67.77-11 .77-14.55-3.55-14.89-3.55c-.33 0-6.55-3.78-6.66-4.11-.12-.34-5.45-4-6-4-.56 0-8.34 3.89-10 4.66-1.67.78-10-3.22-10-3.22l-11-6s-13.23-6-14.34-5.89-9 9.78-9 9.78l-2.55 10.78h-10.56c-2.78 0-10.22 3.33-16.11 4.22s-12.89-1.78-12.89-1.78.45-5 .11-5.33c-.33-.33-3.44-6.78-4.66-7.45-1.23-.66-13.67 2.34-15.67 4-2 1.67-4.33 11-4.33 11s-10.45-2.44-12.45-2.87c-2-.42 0-6.13 0-8.24s-11.89-5.11-14.55-4.66c-2.67.44-5.23 5.55-7.34 7.44s-4 4.45-12.55 4.45h-16l-14.23-6.56s-6-3.22-7.44-4.33-5.44-7.67-7.22-11.45-3.22-.89-7.34 2.56c-4.11 3.44-7.66 4.22-8.77 2.44s-12.23-6.78-12.23-6.78-3.88 6.67-5.55 8c-1.67 1.34-9.11 6.12-9.11 6.12s-10.67-.89-11-.89c-.34 0-12.78 11.33-12.78 11.89 0 .55-31.56-11.56-31.56-11.56s.56-5.44 1.23-7.89c.66-2.44-6.34-7.44-6.34-7.44l-6.22 12-6.89 2.44s-4.11 5.33-5.11 5.78c-1 .44-4.89-.56-5.44-.89-.56-.33-.11-2.11 0-2.89s-7.11-9.67-7.11-9.67l-9.45 6.78 1-6.66s-6.67-5.34-7-5.45-8.44 1.67-8.44 1.67l-8.23 6-7.33-1.11s-19.22 3.89-19.22-1.67-4.11.89-5.11.89-7.56-1.33-13.56-5.22-6.22 1.22-8.66 1.89c-2.45.66.44.88.55 3.22.11 2.33-.55 4.22-2.22 8.11s-6.33 2.11-6.33 2.11-10.23-6.22-10-7.56c.22-1.33 3.88-2.88 4.44-5.55s-6.67-4.11-10.44-5.33c-3.78-1.23-4.89 3.11-5.67 3.44s-5.22 7-5.78 8.44c-.55 1.45-2.78 1-2.78 1s-5.44 2-6.55 3.23c-1.11 1.22-4.22 1.11-4.22 1.11s-9.12-2-9.44-1.78c-.31.22-9.34 10.78-9.34 10.78l-1.07-11.59.73.37 5 .66 3.67-529.78.06-94.94 13 .5 53.5-9.83 38 5.16 21.33-3.66-.67-67.67-2.5-.33V2085h4l-.08-70.33-4.08.25.16-4.75 4.34-.67-.25-8.5-5 2.08 1-6.66 37-8.75 12 1.41-1.09-5.75-37.83-6.25-6.58-6.41 46.75-33 .25-3.75 739.08-198.75 97.5 31.66-1.17 6.17 49.17 36-8.67 4.83-54 12.34 1 44.83 40 10.83v2.84l-5.16 2.66.66 9.17 4.34.83.33 3.34h-3.67l4.34 75.33 52.66 12 .67 3.33-1.67 1v12.84h2.34l-.34 3.5-1.33.66-1.17 7.67 18.17 3 60.33-11.33 48 15.33s.17 11.33-.16 12c-.34.67 7.66 3.5 7.66 3.5l38.5 572.33-177.91 7.5-.09 3.09 10.75 2.91-.66 2.59 3.58 1.66.08 8.17z" class="st0"/></svg>