<svg xmlns="http://www.w3.org/2000/svg" xml:space="preserve" viewBox="0 0 4096 4096"><path d="m1780.25 1917.5-5.08 5.83-53.08 36.83 7.17 5.83 45.92 8.42.33 9.42-14.33-2.75-43.58 10v4.5h4.58l.5 10.92-6.42-.42v5.33h6.42l-1.92 84.71-5-.25.5 4.17h2.12l-1.76 79.85-24.56 4.78-46.89-8.11-64 12.39-.28-2.5-9.83.06-1.83 5.17-1.6 100.46-3.21.33-.25 3.5h3.83l-5.58 181.81h-2.6l.25 2.29 1.83-.19-4.04 185.95-2.77.24v2.68l2.88.24-4.04 189.75-4.25.21v3.54l3.29-.67-1.51 66.06h9.78l.22 7.11.44 3.89 2.89.89 2.89-.67-.11-5.44 3.44-4.44.89-2.44 2.33-2.56 2.67.44 3.56.56 2.33-4 4.44 6.11-1.33-9.44 4-5 5.67-2.44 4.56 2.78-2 4.11-1.56 4.89 2.22 6.56 4.44-.11 6.56-3.78 8-3.33 2.11-1.56 10.33 1.33 6-.78 5.22-.67 2.78-6.56 3.11-.33 3.89.78 5.78 3.89.44 4-.11 6.33 7.62 4.67s4.26-.56 3.93-.67-4.78-5-4.78-5l-.44-2.89 11.89-8.22 3.44 5.56 8 5.11 3.44 5.22 1.33 3.44 1.89-1.78 3.56-7.44-7.22-1.67 9.89-5.67 8 3.78 1.11-7 9.56-2.11 4.56.33-2.67 7.56-7 3.89 7.11 6.78 12.56 4.56 10.33 3.33s8.11 8.22 8.11 6.78.56-8.67.22-8.78c-.33-.11-5.56-2.56-5.56-2.56l1.89-6.67 7.89-.67s2.78-2.33 3-2.89 9.11-12.44 9.11-12.44.67 5.78.67 6.33c0 .56 4.78 8.56 4.78 8.56l10.44 4.22v-16.78l4.67-.44 7.11 5.56-3.22 10.44 3.22 3.56-1.67 5.22 2.22 6.78 4.33-4.78.89-6 4.56.56 3-10.11 6.11.78 1.89 2.33-6.89 6.11-.22 8.11 8.22 2.11 2.22-9.56 4.11-6.44 1.11-5.44 3.44 3.56 3 8.89 4.56-6.22 8.33-1.33 7.44-10 1.44-4 5.56 1 4.78 5.56 1.78.11-2.44 9.56-1.55 8.2s5.56-2.11 5.56-3 1-11.78 1-11.78l6.89-5.33 4.11-3.56 7.22-.22 2.67 11 7.44 3.22 1.78 6.11 11 3.89 2.22-10.56 5.89 9.33v3.67l9.78-1.78-3.67-8.33 6.89-4.78 8 11.78 9.89 2.78 7.44-4.89 6.78-11.11 11.11 2 3.33 10.89 6.78 4.67 1 3.73 5.44-.95-1.22-8.11 8.67-1 2.11-10.22 4.89 12.78 5.11 3.89 1.89-14.89 14.11 2.11-2.22 12.67 7.78 5.78 5.56-5.33 3.33-8.67 12-3.56 4-8.22 9.44 3.33 5 17.78 2.11 4-.56-17.11 10-16.33 11.78 3.33-11.33 10.56-2.44 16.22 1.78 7.56 4.11.89 1.89-12.44.89-11.78s5.67-9.11 6.11-9 8.11.22 8.11.22l.44 8.33 4.44 3.33 6-.56s3.78 2.33 4.11 2.22 5.89-5.78 5.89-5.78l9.33-.33 3.89-3.44 11.11 4-1.44 3.44 7.11 4.89 5.33 5.11 6.11 3.44 4.78 2.44 5.89-6.44 10.67-2.22 6.44-9.44 9.56-3.67 5 3.11-1.33 6.44 2.78 3.11 6.56.22 2.78-8.67 8.67.33 9.56-7.44 9.89-6.44v9.11l-3 5 10.22-1.67 4.44-11 5.67.56 4.11 3.11 3.11-6.89 6.78 4.11 11.11 4.22v6.33l13.67.11v-10.89l10.22 3 6.78 5.22 3.56 4.33 6 1 6.89-4.22s25.44.11 25.33 1-2.89 6-2.89 6l10.11-8.67 9 5.89v8l7.44.78 3.33 7 13.67.56 2.67-8.33 8.33-2.78 1.56-7.78 15.67-2.22 3.22-7.67-6.78-4.56 9-6.33 15.56 16.56 8.22-2.56 5.78-5.44 25.56 2.67 3.33.67 4.89 6.67 4.44 6.11 6.11 3.22 4.22-6 2.33-5.67 1.56-5.56-3.67-2.44-.89-3.89-4.44-3v-3.22l.44-3.67 4-1.44 7.22 7.56 3.22 4.22 6-.89.67-6.56 4.89 6.33v7.56l-6.89 7.44-2 5.56 12.11 4.67 13.56-1.22-.56-4.33-1.67-4.89.78-7.22 2.67-2.11-3-8.11-5-7.44-1.11-7.11 5.11 1.22 3 4.89 7 7.78 1.78 8.11 7.44 2.56-.44 5.78-1.67 3.78-3.22-3.67-1.33 7-6.56 1 .67 7 8.22-2.22 7.56-1.56V2930l7.67-2.22 13.11-2.78 24.56 6.11 15.33-2.22 8.44 2.11 9.67-1.33 8.78-1.11 6.89-.33 8.11-2 2.33-3.67 4.78 2.56 7.11-.78-4.78-4.89 5.56-3.67 4.78 7 3 4.89 20.89-.78-2.22-8.33 7.89-1.33 4 10.56 1.44 9.78 7.67 2.67 10-2.56s-3.33-7.22-4.33-7.33-4.11-4.56-4.11-4.56l9.78-2.33 4.44 6.11 6.11 4.89 9.56-.67 4.22-8.33 6.78 4.44v6.22l3.44 5.67 3.56-1.56-2.78-9.44 2.22-4.67.56-3.22-1.22-3.22 6.89-2.33-1.67 11.56.44 3.78 30.44 1.11 11.67-3.33-5.06-192.67-4.56-.39.17-3.17-3.33.17-.5-3.56 200-7.17-31-661.58-7.42-3.5-.08-14.17-54.75-15.83-68.5 10.33-19.42-4.67-.33-9.17 1.75.58.08-4.33-2.67-1 .17-14.67h2.17l-.33-3-59.61-16.17-2.93-86.71 4-.54-.08-4.12-6-1.25-.96-12.58 4.88.67.04-6.62-42.42-11.5-.25-18.25 1.17-.58.25-2.58-2.33-1.42.33-8.75s3.08-.67 2.83-.5-1.33-4-1.33-4l-2.08-1.08-.08-14.17 64.83-14.5 7.42-4.83-55-42.58.33-8.83-108.67-37.47z" style="fill:#fff"/></svg>