<svg xmlns="http://www.w3.org/2000/svg" xml:space="preserve" viewBox="0 0 4096 4096"><path d="m337.83 1930.67 6 4.83 57.67 9-11.83 4.33v2h4l-9 105.83h-2.11l-1.78 13.78h2.44l-.11 3.11-3.22.44v2.67h1.33l-.11 2.11-1.44.44-1 12.89 2.11.56-4.03 54.12h-1.67l-2.19 34.26.5 1.39-5.72 53.72-1.58-.42-2.42 36.17h2.92l-5.08 55.42-3 .5-3.17 35.75 2.25.5-5.25 55.33h-2.17l-3.75 36.75 1 .83-3.67 56.17h-1.42l-4.08 37.25 1.5.83-4.64 56.53-3.22.44-1.78 35.33.67 4.11-3.94 55.17H324l-2.12 37.17-3.32 58.67h-2.33l-3.78 36.67 2.67.89-1.11 9.94 129.67-4.5 53 2.5-.21 2.67-2.79.5-.04 5.5h-3.75v9l50.85.28.67-8.28 4-1.5 27.22-.72-.39-5.61 32.69-35.25v-4.58l-1.83.08-.58-3.42 3.92.17v-3.83l2-5.42 3.75-7.83 4.75.25 3.25 11.5 3.83.75-1.75 2.08-2 .25.5 8.33 25.92 36.92 3.33.92-2.17 4.92 61.17-.44-5.33 4.83-.78 4.78-5 1.11-2.22 40.81 34.25-.83.42-6.17 14.08-9.83 12.08 9.08 51.25.5v-4.42l3.92-4.58v-4.58l-7.08-2.33-4.75-4.75.08-4.17-.08-2.5.83-6.42 4.42-1.5-.42-2.83 5.08-3.5 7.42 2.92 4.5-1.25 2.42-5.08-3.92-1.83-10.92-3-.17-10.83 5.33-7.33s8.08-3.33 8.25-3.08 1.83 4.67 1.83 4.67l4.58-1.75 1.83-5.33-5.58-6.67-.33-1.17.58-10.08.67-7.25 8.83-6.33 3.92 4.83 3.58-3.92 1.25-5.08s-6.92-3.75-6.75-5 6.75-8.67 6.75-8.67l-1.67-4.17 12.42-.58 7.67 2.75.5 8 .58 6.33 3.5.25L870 2783l2.42-4v-10.5l12-1.5 6 .25.42 6.25 5.83-7.5 2.83 4v6.67l.75 4s3 2.67 3 2.92 1 2.42 1 2.42l6.5-3.17H913l3.75 7.33 6.17 10.25 6.33-.25 1.17 3.42 2.42-9.67 3.67 9.17 6.25 1.17 3.42.5 8.75 1.08 1.92.08v7.58l8.75 1v5.25s7.33 3.42 7.17 3.67-3.58 7.42-3.58 7.42l3.59 5.25s6.91-1.17 7.16-1.42 2.58-4.83 2.58-4.83l-3.75-8.58 3.25-5 6.42 7.5 4.25 11.25 5.58 3 4.83 3.17 1.75 7.67-5.42 12.17-6.92 5.92-1.58 8.42 4.08 5-.75 4.92-6.67-.58-4.92-.58 2.25 7.25-3.08 2 5.83 1.83 4.67-5.58 4.67-1.08 5.5 3.67 1.42 5 3.33-7.17 4.58 8.08 2.83-7.75h6.25l3.25 8.83 8.42.5 3.33-7.33 3.5-3.33 1.83 2.75 5.42-7.42 2 6.5 6.83-5.25-4.58 15.67 1.08 6.17s5.33-1.83 5.42-2.17c.08-.33.58 3.58.58 3.58l19.08-10-18.75 19 21-5.58 12.67 5.58 8.5 5.33 8.33 3 3.5-8.5h-11.67l1.83-7 4.5-5.67-3.17-2.5-6.5-10 5.17.67s-.67-11-.33-10.5c.33.5 20 20.33 20 20.33l-8.33-20 11 10.67-1.83-19 5 6.33s1.83-5.67 1.83-4.67 4.5 3.5 4.83 7.67 1.83 7.67 1.83 7.67l4.83-13.83 7 1 3.17 8.5-4 6.17 10-5-3.17 8.17 12.83-12.5-2.33 9.67 4.33-1.33-9.33 12.17 5.67 6.5 9-4.17 4.17 3 11.17 6.33 5.67-1 3-9s11.83 6.67 12.83 7 11.33 1.5 11.33 1.5l25.5-1 4.83-5.17s-7.67-7.17-6.83-7.5c.83-.33 17.83 5.5 17.83 5.5l-8.67-14 17.33 17.17s.67-26 1.33-25.33 8.33 8.33 8.33 8.33 6 7.83 6.17 9.17 1.67 14 1.67 14l1.33 8.5 21.67 5.17 2.83 6h19.16v-6.17l11.5-.33 4.67-8-5.83-4.5 1.83-10.5 11.33-2.67 1.67 6.83 9.83-4 10.17 8.17 8.67-5.17-1.67 10.83 8.5.67 10.17-10.17 17.5-2 11.5 8.33s-1.33-7.17-1.83-7.33c-.5-.17-16.33-6.33-16.33-6.33l-4-1.33 18.33 3.83-14.33-12c5.04-1.04 30.21 13.4 26.33 14.67-.5.16-8.5-27.33-8.5-27.33l10.33 6.67-4-8.5 9.5 9.17 2.17-6.17 5.17-5.5 1.67 19.83 9.5-2 6.17-10.67-4.17 13.67 13.67-8.33-8.5 14 6.17.33 1.33 5.5 7.83 5.5v6.5l2-23.5 10 9.67 9.5-3.17 1.5 10.17-6.67 4 4.5 5.17 11.83-2.67 13.5 6.5 9 1.33 19.61-629.5-52.94 3.06-47.33-6.44 6.67-191.11 62-12.22 6.22-5.56-43.11-34.89s-1021.33-194.89-1024.44-194-81.78 31.56-81.78 31.56z" style="fill:#fff"/></svg>